<?xml version="1.0" encoding="UTF-8"?>
<svg width="23px" height="26px" viewBox="0 0 23 26" version="1.1" xmlns="http://www.w3.org/2000/svg" xmlns:xlink="http://www.w3.org/1999/xlink">
    <!-- Generator: Sketch 63.1 (92452) - https://sketch.com -->
    <title>alarm copy</title>
    <desc>Created with Sketch.</desc>
    <g id="Page-1" stroke="none" stroke-width="1" fill="none" fill-rule="evenodd">
        <g id="HU#25" transform="translate(-887.000000, -22.000000)" fill="#222222" fill-rule="nonzero" stroke="#222222" stroke-width="0.2">
            <g id="Header">
                <g id="Right-SIde-OPtions" transform="translate(856.000000, 0.000000)">
                    <g id="alarm-copy" transform="translate(32.000000, 23.000000)">
                        <path d="M17.8215343,12.6543154 L17.8215343,8.72973219 C17.8402142,5.73764113 15.8371173,3.7530954 14.115957,2.96285522 C13.6228936,2.73638661 13.1146257,2.56184433 12.5981038,2.43224669 L12.5981038,2.18177851 C12.5981038,0.978745841 11.6237064,0 10.4260186,0 C9.22833083,0 8.25393341,0.978745841 8.25393341,2.18177851 L8.25393341,2.47020963 C7.78867276,2.59631643 7.33123162,2.76082253 6.88725741,2.96678242 C4.98537961,3.84734823 3.05830562,5.96978237 3.04092893,8.72711405 L3.04092893,12.6543154 C3.04092893,15.4417556 2.06088409,17.8334212 0.128162682,19.7629861 C0.0130421664,19.878184 -0.0286618694,20.0479264 0.019992839,20.2037054 C0.0686475475,20.3594844 0.200275911,20.4746823 0.360575798,20.502609 L4.48362792,21.217796 C5.25167725,21.3508845 5.95890819,21.4599735 6.63182019,21.5498627 C7.38987792,23.0421992 8.87862512,24 10.5050825,24 C12.1319743,24 13.6211559,23.0417629 14.3787793,21.5485537 C15.0490848,21.4591007 15.7528404,21.3504482 16.5165455,21.217796 L20.6391632,20.502609 C20.7994631,20.4751186 20.9306571,20.3594844 20.9797462,20.2037054 C21.0288353,20.0483628 20.9871313,19.878184 20.8715763,19.7629861 C18.8480618,17.7422229 17.8215343,15.3505573 17.8215343,12.6543154 Z M9.12276749,2.18177851 C9.12276749,1.46004618 9.70749283,0.872711405 10.4260186,0.872711405 C11.1445444,0.872711405 11.7292697,1.46004618 11.7292697,2.18177851 L11.7292697,2.26119525 C10.8634766,2.13639752 9.98508532,2.14163379 9.12276749,2.28170397 L9.12276749,2.18177851 Z M10.5055169,23.1268522 C9.40557299,23.1268522 8.37774227,22.5779168 7.71786279,21.6803331 C8.68878487,21.7806949 9.59497882,21.8313122 10.5007383,21.8313122 C11.4099732,21.8313122 12.3192081,21.7806949 13.2940399,21.679024 C12.633726,22.5774804 11.6054609,23.1268522 10.5055169,23.1268522 Z M16.3692781,20.3573026 C15.5356318,20.5017363 14.7714923,20.619116 14.0494911,20.7116234 C14.0486223,20.7116234 14.0477535,20.7116234 14.0464502,20.7116234 C13.7280225,20.7522045 13.4187176,20.7875493 13.1159289,20.8180942 C13.1133224,20.8180942 13.1111503,20.8185306 13.1085438,20.8185306 C12.8309513,20.8464573 12.5598751,20.8691478 12.2914054,20.8883475 C12.241013,20.8918383 12.1906206,20.8953292 12.1406627,20.8983837 C11.9082496,20.9136561 11.6784429,20.9258741 11.4499396,20.9346012 C11.403457,20.9363466 11.3565399,20.9389647 11.3100573,20.9402738 C10.7696425,20.9586008 10.2366128,20.9586008 9.6966324,20.9407102 C9.64841211,20.9389647 9.5997574,20.9363466 9.55153711,20.9346012 C9.3269435,20.9254377 9.10061223,20.9140925 8.87167444,20.89882 C8.81737231,20.8953292 8.76307018,20.8918383 8.70833364,20.8879111 C8.44811783,20.8691478 8.1848611,20.84733 7.91595696,20.820276 C7.90596537,20.8194033 7.89640819,20.8185306 7.8864166,20.8176579 C7.58580001,20.7875493 7.27910158,20.7522045 6.96371481,20.7120598 C6.96241155,20.7120598 6.9611083,20.7120598 6.95980505,20.7120598 C6.23519743,20.6199887 5.46801694,20.5017363 4.6308953,20.3568662 L1.30326078,19.780004 C3.03354385,17.7928401 3.90976301,15.3998655 3.90976301,12.6543154 L3.90976301,8.72973219 C3.92453319,6.35813894 5.59877647,4.52457228 7.25086447,3.75920438 C7.74219014,3.53186306 8.25176133,3.36212069 8.77002086,3.24299558 C8.77436503,3.24212287 8.77914362,3.24255923 8.78348779,3.24168651 C9.85432579,2.99994546 10.9933673,2.98903656 12.0763689,3.21201433 C12.0820164,3.21332339 12.0876638,3.21070526 12.0933112,3.21157797 C12.659791,3.33026672 13.2175825,3.51004527 13.7549564,3.75658624 C15.3575209,4.49271831 16.9679048,6.31406702 16.9527002,8.72755041 L16.9527002,12.6547517 C16.9527002,15.2872857 17.8975573,17.7352412 19.695175,19.7808767 L16.3692781,20.3573026 Z" id="Shape"></path>
                        <path d="M13.723449,4.60448559 C11.8880069,3.79880809 9.64047843,3.79789823 7.81735156,4.60539545 C6.77766243,5.06578259 5.01421703,6.41282442 5,8.54234242 C4.99858617,8.79346268 5.20889231,8.99818029 5.47082766,9 C5.47177498,9 5.47272231,9 5.47366963,9 C5.73371033,9 5.94591112,8.79846689 5.94733211,8.54780156 C5.95822635,6.87503128 7.37731912,5.80231103 8.21380705,5.43154471 C9.7911031,4.73232036 11.7406978,4.73414007 13.3288881,5.43154471 C13.5671404,5.53617815 13.8480222,5.43563906 13.9569646,5.2072652 C14.0659069,4.97843641 13.9607539,4.7086641 13.723449,4.60448559 Z" id="Shape"></path>
                    </g>
                </g>
            </g>
        </g>
    </g>
</svg>